<?xml version="1.0" encoding="UTF-8" standalone="no"?>
<!-- Created with Inkscape (http://www.inkscape.org/) -->

<svg
   xmlns:dc="http://purl.org/dc/elements/1.1/"
   xmlns:cc="http://creativecommons.org/ns#"
   xmlns:rdf="http://www.w3.org/1999/02/22-rdf-syntax-ns#"
   xmlns:svg="http://www.w3.org/2000/svg"
   xmlns="http://www.w3.org/2000/svg"
   xmlns:sodipodi="http://sodipodi.sourceforge.net/DTD/sodipodi-0.dtd"
   xmlns:inkscape="http://www.inkscape.org/namespaces/inkscape"
   width="344.04001"
   height="344.04001"
   id="svg2"
   version="1.1"
   inkscape:version="0.48.5 r10040"
   sodipodi:docname="logosvg.svg"
   inkscape:export-filename="/home/desch/Documents/logosvg.png"
   inkscape:export-xdpi="519.79999"
   inkscape:export-ydpi="519.79999">
  <defs
     id="defs4" />
  <sodipodi:namedview
     id="base"
     pagecolor="#ffffff"
     bordercolor="#666666"
     borderopacity="1.0"
     inkscape:pageopacity="0.0"
     inkscape:pageshadow="2"
     inkscape:zoom="0.98994949"
     inkscape:cx="75.184796"
     inkscape:cy="252.95729"
     inkscape:document-units="px"
     inkscape:current-layer="layer1"
     showgrid="false"
     inkscape:window-width="1920"
     inkscape:window-height="1025"
     inkscape:window-x="-2"
     inkscape:window-y="32"
     inkscape:window-maximized="1"
     fit-margin-top="0"
     fit-margin-left="0"
     fit-margin-right="0"
     fit-margin-bottom="0" />
  <metadata
     id="metadata7">
    <rdf:RDF>
      <cc:Work
         rdf:about="">
        <dc:format>image/svg+xml</dc:format>
        <dc:type
           rdf:resource="http://purl.org/dc/dcmitype/StillImage" />
        <dc:title></dc:title>
      </cc:Work>
    </rdf:RDF>
  </metadata>
  <g
     inkscape:label="Layer 1"
     inkscape:groupmode="layer"
     id="layer1"
     transform="translate(-86.320872,-12.288626)">
    <path
       sodipodi:type="star"
       style="fill:#6f6f6f;fill-opacity:1;stroke:none"
       id="path2985"
       sodipodi:sides="6"
       sodipodi:cx="237.14285"
       sodipodi:cy="175.21933"
       sodipodi:r1="172.01791"
       sodipodi:r2="197.72173"
       sodipodi:arg1="0.52359878"
       sodipodi:arg2="1.0832659"
       inkscape:flatsided="true"
       inkscape:rounded="0.06"
       inkscape:randomized="0"
       d="m 386.11474,261.22829 c -5.16054,8.93831 -138.65081,86.00895 -148.97189,86.00895 -10.32107,0 -143.811343,-77.07064 -148.971881,-86.00895 -5.160537,-8.93832 -5.160537,-163.079605 10e-7,-172.017918 5.160537,-8.938313 138.65081,-86.008956 148.97188,-86.008956 10.32108,10e-8 143.81135,77.070645 148.97189,86.008958 5.16053,8.938313 5.16053,163.079596 0,172.017916 z"
       transform="translate(23.233509,9.0913729)" />
    <g
       id="g4434"
       style="fill:#ffffff;fill-opacity:1"
       transform="matrix(-0.90438595,0,0,0.90438595,457.51034,-5155.3106)">
      <path
         transform="matrix(0.71483512,-0.69929304,0.69929304,0.71483512,-4060.3041,1866.3436)"
         sodipodi:open="true"
         sodipodi:end="3.1415927"
         sodipodi:start="0"
         d="m 341.04873,5868.5273 c 0,43.1707 -41.46109,78.1674 -92.60594,78.1674 -51.14484,0 -92.60593,-34.9967 -92.60593,-78.1674 0,0 0,0 0,0"
         sodipodi:ry="78.167374"
         sodipodi:rx="92.605934"
         sodipodi:cy="5868.5273"
         sodipodi:cx="248.44279"
         id="path3821"
         style="fill:#ffffff;fill-opacity:1;stroke:none"
         sodipodi:type="arc" />
      <path
         inkscape:connector-curvature="0"
         id="path3823"
         d="m 264.375,5944.7034 -38.33686,61.2394 77.17161,0 -27.38348,-70.6992 z"
         style="fill:#ffffff;fill-opacity:1;stroke:none" />
      <rect
         rx="0"
         transform="matrix(-0.48229729,-0.8760076,0.8760076,0.48229729,0,0)"
         ry="0"
         y="-4983.084"
         x="-9492.5176"
         height="72.942673"
         width="72.209579"
         id="rect4333"
         style="fill:#ffffff;fill-opacity:1;stroke:none" />
      <path
         transform="translate(4.4809322,-3.4851695)"
         sodipodi:open="true"
         sodipodi:end="9.424778"
         sodipodi:start="3.2030536"
         d="m 165.32904,5858.7594 c 0.58268,-9.4686 8.73088,-16.6721 18.19952,-16.0894 9.46863,0.5827 16.67211,8.7309 16.08943,18.1995 -0.58269,9.4686 -8.73089,16.6721 -18.19952,16.0894 -9.0597,-0.5575 -16.12187,-8.0676 -16.12187,-17.1444"
         sodipodi:ry="17.176907"
         sodipodi:rx="17.176907"
         sodipodi:cy="5859.8145"
         sodipodi:cx="182.47351"
         id="path4335"
         style="color:#000000;fill:#ffffff;fill-opacity:1;fill-rule:nonzero;stroke:none;marker:none;visibility:visible;display:inline;overflow:visible;enable-background:accumulate"
         sodipodi:type="arc" />
    </g>
    <g
       id="g4543"
       style="stroke:#ffffff;stroke-opacity:1"
       transform="translate(21.213203,0)">
      <path
         style="fill:none;stroke:#ffffff;stroke-width:9.10723782;stroke-miterlimit:4;stroke-opacity:1;stroke-dasharray:none"
         d="m 295.22853,141.95029 c 0,-14.24349 -9.7379,-27.71197 -27.93808,-27.71197"
         id="path4335-5"
         inkscape:connector-curvature="0"
         sodipodi:nodetypes="cc" />
      <path
         style="fill:none;stroke:#ffffff;stroke-width:9.10723782;stroke-miterlimit:4;stroke-opacity:1;stroke-dasharray:none"
         d="m 311.74767,140.93163 c 0,-22.3188 -15.25881,-43.423281 -43.77759,-43.423281"
         id="path4335-5-6"
         inkscape:connector-curvature="0"
         sodipodi:nodetypes="cc" />
      <path
         style="fill:none;stroke:#ffffff;stroke-width:9.10723782;stroke-miterlimit:4;stroke-opacity:1;stroke-dasharray:none"
         d="m 329.37277,141.34773 c 0,-31.38581 -21.45771,-61.064044 -61.56227,-61.064044"
         id="path4335-5-6-2"
         inkscape:connector-curvature="0"
         sodipodi:nodetypes="cc" />
    </g>
  </g>
</svg>
